<svg width="154" height="44" viewBox="0 0 154 44" fill="none" xmlns="http://www.w3.org/2000/svg">
<path d="M21.7411 30.5735C25.4934 30.5735 28.5353 27.5317 28.5353 23.7794C28.5353 20.0271 25.4934 16.9853 21.7411 16.9853C17.9889 16.9853 14.947 20.0271 14.947 23.7794C14.947 27.5317 17.9889 30.5735 21.7411 30.5735Z" stroke="url(#paint0_linear_420_394)" stroke-width="2" stroke-linecap="round" stroke-linejoin="round"/>
<path d="M30.5735 21.7412C32.1561 21.7385 33.7174 22.1057 35.1329 22.8135C36.5484 23.5212 37.779 24.55 38.7264 25.8176" stroke="url(#paint1_linear_420_394)" stroke-width="2" stroke-linecap="round" stroke-linejoin="round"/>
<path d="M4.75586 25.8176C5.7033 24.55 6.93385 23.5212 8.34937 22.8135C9.76489 22.1057 11.3262 21.7385 12.9088 21.7412" stroke="url(#paint2_linear_420_394)" stroke-width="2" stroke-linecap="round" stroke-linejoin="round"/>
<path d="M11.9576 36.6882C12.8525 34.8557 14.244 33.3113 15.9737 32.231C17.7034 31.1507 19.7018 30.5779 21.7412 30.5779C23.7805 30.5779 25.7789 31.1507 27.5086 32.231C29.2383 33.3113 30.6299 34.8557 31.5247 36.6882" stroke="url(#paint3_linear_420_394)" stroke-width="2" stroke-linecap="round" stroke-linejoin="round"/>
<path d="M12.9088 21.7412C11.8772 21.7422 10.8666 21.4497 9.99508 20.8977C9.12356 20.3457 8.42713 19.5571 7.98715 18.624C7.54717 17.6909 7.38182 16.6519 7.51042 15.6283C7.63902 14.6048 8.05626 13.6389 8.71338 12.8437C9.37051 12.0484 10.2404 11.4566 11.2214 11.1374C12.2023 10.8182 13.2539 10.7847 14.2532 11.0409C15.2525 11.2971 16.1582 11.8324 16.8646 12.5843C17.571 13.3361 18.0488 14.2735 18.2422 15.2868" stroke="url(#paint4_linear_420_394)" stroke-width="2" stroke-linecap="round" stroke-linejoin="round"/>
<path d="M25.2401 15.2868C25.4335 14.2735 25.9114 13.3361 26.6177 12.5843C27.3241 11.8324 28.2298 11.2971 29.2291 11.0409C30.2284 10.7847 31.28 10.8182 32.261 11.1374C33.2419 11.4566 34.1118 12.0484 34.7689 12.8437C35.4261 13.6389 35.8433 14.6048 35.9719 15.6283C36.1005 16.6519 35.9352 17.6909 35.4952 18.624C35.0552 19.5571 34.3588 20.3457 33.4872 20.8977C32.6157 21.4497 31.6051 21.7422 30.5735 21.7412" stroke="url(#paint5_linear_420_394)" stroke-width="2" stroke-linecap="round" stroke-linejoin="round"/>
<path d="M47.54 27.9656C47.2822 27.9656 47.0699 27.8822 46.9031 27.7153C46.7364 27.5484 46.653 27.336 46.653 27.0781V11.0787C46.653 10.8208 46.7364 10.6084 46.9031 10.4415C47.0699 10.2746 47.2822 10.1912 47.54 10.1912C47.7978 10.1912 48.01 10.2746 48.1768 10.4415C48.3436 10.6084 48.427 10.8208 48.427 11.0787V18.1794H59.5263V11.0787C59.5263 10.8208 59.6097 10.6084 59.7765 10.4415C59.9433 10.2746 60.1556 10.1912 60.4133 10.1912C60.6711 10.1912 60.8834 10.2746 61.0502 10.4415C61.217 10.6084 61.3004 10.8208 61.3004 11.0787V27.0781C61.3004 27.336 61.217 27.5484 61.0502 27.7153C60.8834 27.8822 60.6711 27.9656 60.4133 27.9656C60.1556 27.9656 59.9433 27.8822 59.7765 27.7153C59.6097 27.5484 59.5263 27.336 59.5263 27.0781V19.7725H48.427V27.0781C48.427 27.336 48.3436 27.5484 48.1768 27.7153C48.01 27.8822 47.7978 27.9656 47.54 27.9656Z" fill="url(#paint6_linear_420_394)"/>
<path d="M71.2567 28.0794C70.0285 28.0794 68.9368 27.8139 67.9815 27.2829C67.0414 26.7367 66.2985 25.9856 65.7526 25.0298C65.2219 24.0739 64.9565 22.9815 64.9565 21.7525C64.9565 20.5084 65.2067 19.416 65.7071 18.4753C66.2226 17.5194 66.9277 16.7684 67.8223 16.2222C68.7169 15.676 69.748 15.4029 70.9156 15.4029C72.068 15.4029 73.0687 15.6684 73.9178 16.1994C74.7821 16.7153 75.4493 17.436 75.9193 18.3615C76.3894 19.287 76.6244 20.3415 76.6244 21.525C76.6244 21.7677 76.5486 21.965 76.397 22.1167C76.2453 22.2532 76.0482 22.3215 75.8056 22.3215H66.1392V20.865H75.9876L75.0096 21.5705C75.0247 20.6905 74.8655 19.9015 74.5319 19.2036C74.1984 18.5056 73.7207 17.9594 73.099 17.565C72.4925 17.1705 71.7647 16.9732 70.9156 16.9732C70.0513 16.9732 69.2931 17.1781 68.6411 17.5877C67.9891 17.9974 67.4812 18.5663 67.1173 19.2946C66.7685 20.0077 66.5941 20.827 66.5941 21.7525C66.5941 22.6781 66.7913 23.4974 67.1855 24.2105C67.5949 24.9236 68.1483 25.485 68.8458 25.8946C69.5433 26.3043 70.347 26.5091 71.2567 26.5091C71.8026 26.5091 72.3485 26.4181 72.8943 26.236C73.4554 26.0388 73.9027 25.796 74.2363 25.5077C74.403 25.3712 74.5926 25.3029 74.8049 25.3029C75.0172 25.2877 75.1991 25.3408 75.3507 25.4622C75.5479 25.6443 75.6464 25.8415 75.6464 26.0539C75.6616 26.2663 75.5782 26.4484 75.3962 26.6001C74.8958 27.025 74.259 27.3815 73.4857 27.6698C72.7124 27.9429 71.9694 28.0794 71.2567 28.0794Z" fill="url(#paint7_linear_420_394)"/>
<path d="M82.2709 27.9656C81.6644 27.9656 81.1185 27.7987 80.6333 27.465C80.1633 27.1312 79.7918 26.6684 79.5188 26.0767C79.2611 25.485 79.1322 24.8022 79.1322 24.0284V11.056C79.1322 10.7981 79.208 10.5932 79.3596 10.4415C79.5264 10.2746 79.7387 10.1912 79.9965 10.1912C80.2542 10.1912 80.4589 10.2746 80.6106 10.4415C80.7774 10.5932 80.8607 10.7981 80.8607 11.056V24.0284C80.8607 24.6808 80.9896 25.2119 81.2474 25.6215C81.5203 26.0312 81.8615 26.236 82.2709 26.236H82.8395C83.067 26.236 83.2489 26.3194 83.3854 26.4863C83.5218 26.6381 83.5901 26.8429 83.5901 27.1008C83.5901 27.3587 83.4915 27.5712 83.2944 27.7381C83.1124 27.8898 82.8698 27.9656 82.5666 27.9656H82.2709Z" fill="url(#paint8_linear_420_394)"/>
<path d="M86.8932 33.2912C86.6202 33.2912 86.4004 33.2077 86.2336 33.0408C86.082 32.8891 86.0061 32.6767 86.0061 32.4036V21.6615C86.0213 20.4781 86.3018 19.416 86.8477 18.4753C87.4087 17.5194 88.1593 16.7684 89.0994 16.2222C90.0547 15.676 91.1236 15.4029 92.3064 15.4029C93.5194 15.4029 94.6035 15.6836 95.5588 16.245C96.5141 16.7912 97.2646 17.5422 97.8105 18.4981C98.3715 19.4539 98.652 20.5387 98.652 21.7525C98.652 22.9512 98.3791 24.0284 97.8332 24.9843C97.3025 25.9401 96.5747 26.6987 95.6498 27.2601C94.7248 27.8063 93.6786 28.0794 92.5111 28.0794C91.4951 28.0794 90.5702 27.867 89.7362 27.4422C88.9174 27.0022 88.2578 26.4256 87.7575 25.7125V32.4036C87.7575 32.6767 87.6741 32.8891 87.5073 33.0408C87.3556 33.2077 87.151 33.2912 86.8932 33.2912ZM92.3064 26.4863C93.1858 26.4863 93.9743 26.2815 94.6718 25.8719C95.3693 25.4622 95.9151 24.9008 96.3094 24.1877C96.7188 23.4594 96.9235 22.6477 96.9235 21.7525C96.9235 20.8422 96.7188 20.0305 96.3094 19.3174C95.9151 18.6043 95.3693 18.0429 94.6718 17.6332C93.9743 17.2084 93.1858 16.996 92.3064 16.996C91.4421 16.996 90.6612 17.2084 89.9637 17.6332C89.2662 18.0429 88.7203 18.6043 88.3261 19.3174C87.9318 20.0305 87.7347 20.8422 87.7347 21.7525C87.7347 22.6477 87.9318 23.4594 88.3261 24.1877C88.7203 24.9008 89.2662 25.4622 89.9637 25.8719C90.6612 26.2815 91.4421 26.4863 92.3064 26.4863Z" fill="url(#paint9_linear_420_394)"/>
<path d="M107.751 28.0794C106.553 28.0794 105.476 27.8063 104.521 27.2601C103.566 26.6987 102.807 25.9401 102.246 24.9843C101.701 24.0284 101.428 22.9436 101.428 21.7298C101.428 20.5312 101.693 19.4539 102.224 18.4981C102.77 17.5422 103.505 16.7912 104.43 16.245C105.355 15.6836 106.401 15.4029 107.569 15.4029C108.584 15.4029 109.502 15.6229 110.321 16.0629C111.139 16.4877 111.799 17.0567 112.299 17.7698V11.0787C112.299 10.8056 112.383 10.5932 112.55 10.4415C112.716 10.2746 112.929 10.1912 113.186 10.1912C113.444 10.1912 113.656 10.2746 113.823 10.4415C113.99 10.5932 114.073 10.8056 114.073 11.0787V21.8208C114.043 23.0043 113.747 24.0739 113.186 25.0298C112.641 25.9705 111.89 26.7139 110.935 27.2601C109.995 27.8063 108.933 28.0794 107.751 28.0794ZM107.751 26.4863C108.63 26.4863 109.411 26.2815 110.093 25.8719C110.791 25.447 111.337 24.8781 111.731 24.165C112.14 23.4519 112.345 22.6401 112.345 21.7298C112.345 20.8346 112.14 20.0305 111.731 19.3174C111.337 18.5891 110.791 18.0201 110.093 17.6105C109.411 17.2008 108.63 16.996 107.751 16.996C106.886 16.996 106.105 17.2008 105.408 17.6105C104.71 18.0201 104.157 18.5891 103.748 19.3174C103.338 20.0305 103.133 20.8346 103.133 21.7298C103.133 22.6401 103.338 23.4519 103.748 24.165C104.157 24.8781 104.71 25.447 105.408 25.8719C106.105 26.2815 106.886 26.4863 107.751 26.4863Z" fill="url(#paint10_linear_420_394)"/>
<path d="M123.809 28.0794C122.581 28.0794 121.489 27.8139 120.534 27.2829C119.594 26.7367 118.851 25.9856 118.305 25.0298C117.774 24.0739 117.509 22.9815 117.509 21.7525C117.509 20.5084 117.759 19.416 118.259 18.4753C118.775 17.5194 119.48 16.7684 120.374 16.2222C121.269 15.676 122.3 15.4029 123.468 15.4029C124.62 15.4029 125.621 15.6684 126.47 16.1994C127.334 16.7153 128.001 17.436 128.471 18.3615C128.941 19.287 129.176 20.3415 129.176 21.525C129.176 21.7677 129.101 21.965 128.949 22.1167C128.797 22.2532 128.6 22.3215 128.358 22.3215H118.691V20.865H128.54L127.562 21.5705C127.577 20.6905 127.418 19.9015 127.084 19.2036C126.75 18.5056 126.273 17.9594 125.651 17.565C125.045 17.1705 124.317 16.9732 123.468 16.9732C122.603 16.9732 121.845 17.1781 121.193 17.5877C120.541 17.9974 120.033 18.5663 119.669 19.2946C119.321 20.0077 119.146 20.827 119.146 21.7525C119.146 22.6781 119.343 23.4974 119.738 24.2105C120.147 24.9236 120.7 25.485 121.398 25.8946C122.095 26.3043 122.899 26.5091 123.809 26.5091C124.355 26.5091 124.901 26.4181 125.446 26.236C126.007 26.0388 126.455 25.796 126.788 25.5077C126.955 25.3712 127.145 25.3029 127.357 25.3029C127.569 25.2877 127.751 25.3408 127.903 25.4622C128.1 25.6443 128.198 25.8415 128.198 26.0539C128.214 26.2663 128.13 26.4484 127.948 26.6001C127.448 27.025 126.811 27.3815 126.038 27.6698C125.264 27.9429 124.521 28.0794 123.809 28.0794Z" fill="url(#paint11_linear_420_394)"/>
<path d="M136.483 28.0794C135.589 28.0794 134.702 27.9277 133.822 27.6243C132.943 27.3208 132.23 26.8656 131.684 26.2588C131.517 26.0767 131.449 25.8719 131.48 25.6443C131.51 25.4167 131.624 25.2194 131.821 25.0525C132.033 24.9008 132.253 24.8401 132.48 24.8705C132.708 24.9008 132.897 24.9994 133.049 25.1663C133.413 25.5912 133.89 25.9174 134.482 26.145C135.088 26.3725 135.755 26.4863 136.483 26.4863C137.605 26.4863 138.417 26.2967 138.917 25.9174C139.417 25.5229 139.675 25.0525 139.69 24.5063C139.69 23.9601 139.433 23.5125 138.917 23.1636C138.401 22.7994 137.552 22.5187 136.37 22.3215C134.838 22.0787 133.716 21.6539 133.003 21.047C132.291 20.4401 131.934 19.7194 131.934 18.885C131.934 18.1112 132.139 17.4663 132.549 16.9505C132.958 16.4346 133.504 16.0477 134.186 15.7898C134.868 15.5319 135.619 15.4029 136.438 15.4029C137.454 15.4029 138.326 15.5774 139.053 15.9263C139.796 16.2753 140.395 16.7456 140.85 17.3374C141.002 17.5346 141.063 17.7394 141.032 17.9519C141.002 18.1643 140.881 18.3387 140.668 18.4753C140.486 18.5815 140.274 18.6194 140.031 18.5891C139.804 18.5436 139.607 18.4298 139.44 18.2477C139.061 17.8077 138.621 17.4891 138.121 17.2919C137.621 17.0794 137.044 16.9732 136.392 16.9732C135.558 16.9732 134.891 17.1477 134.391 17.4967C133.89 17.8305 133.64 18.2553 133.64 18.7712C133.64 19.1201 133.731 19.4236 133.913 19.6815C134.11 19.9394 134.436 20.167 134.891 20.3643C135.361 20.5615 136.013 20.7284 136.847 20.865C137.984 21.047 138.879 21.3201 139.531 21.6843C140.198 22.0332 140.668 22.4505 140.941 22.936C141.229 23.4063 141.373 23.9222 141.373 24.4836C141.373 25.1967 141.161 25.8263 140.737 26.3725C140.327 26.9036 139.751 27.3208 139.008 27.6243C138.28 27.9277 137.439 28.0794 136.483 28.0794Z" fill="url(#paint12_linear_420_394)"/>
<path d="M145.833 23.8008L144.764 22.6401L152.542 15.6077C152.724 15.4408 152.914 15.365 153.111 15.3801C153.308 15.3801 153.49 15.4712 153.657 15.6532C153.824 15.8353 153.899 16.0325 153.884 16.245C153.884 16.4422 153.793 16.6167 153.611 16.7684L145.833 23.8008ZM145.264 27.9656C145.006 27.9656 144.794 27.8898 144.627 27.7381C144.476 27.5712 144.4 27.3587 144.4 27.1008V11.056C144.4 10.7981 144.476 10.5932 144.627 10.4415C144.794 10.2746 145.006 10.1912 145.264 10.1912C145.522 10.1912 145.727 10.2746 145.878 10.4415C146.045 10.5932 146.128 10.7981 146.128 11.056V27.1008C146.128 27.3587 146.045 27.5712 145.878 27.7381C145.727 27.8898 145.522 27.9656 145.264 27.9656ZM153.68 27.8519C153.482 28.0187 153.278 28.087 153.065 28.0567C152.853 28.0415 152.671 27.9353 152.52 27.7381L147.448 21.5022L148.676 20.4098L153.793 26.7139C153.945 26.896 154.013 27.0932 153.998 27.3056C153.983 27.5029 153.877 27.685 153.68 27.8519Z" fill="url(#paint13_linear_420_394)"/>
<defs>
<linearGradient id="paint0_linear_420_394" x1="21.7411" y1="16.9853" x2="21.7411" y2="30.5735" gradientUnits="userSpaceOnUse">
<stop stop-color="#996DFF"/>
<stop offset="1" stop-color="#00B37E"/>
</linearGradient>
<linearGradient id="paint1_linear_420_394" x1="34.65" y1="21.7411" x2="34.65" y2="25.8176" gradientUnits="userSpaceOnUse">
<stop stop-color="#996DFF"/>
<stop offset="1" stop-color="#00B37E"/>
</linearGradient>
<linearGradient id="paint2_linear_420_394" x1="8.83233" y1="21.7411" x2="8.83233" y2="25.8176" gradientUnits="userSpaceOnUse">
<stop stop-color="#996DFF"/>
<stop offset="1" stop-color="#00B37E"/>
</linearGradient>
<linearGradient id="paint3_linear_420_394" x1="21.7412" y1="30.5779" x2="21.7412" y2="36.6882" gradientUnits="userSpaceOnUse">
<stop stop-color="#996DFF"/>
<stop offset="1" stop-color="#00B37E"/>
</linearGradient>
<linearGradient id="paint4_linear_420_394" x1="12.8551" y1="10.8706" x2="12.8551" y2="21.7412" gradientUnits="userSpaceOnUse">
<stop stop-color="#996DFF"/>
<stop offset="1" stop-color="#00B37E"/>
</linearGradient>
<linearGradient id="paint5_linear_420_394" x1="30.6272" y1="10.8706" x2="30.6272" y2="21.7412" gradientUnits="userSpaceOnUse">
<stop stop-color="#996DFF"/>
<stop offset="1" stop-color="#00B37E"/>
</linearGradient>
<linearGradient id="paint6_linear_420_394" x1="46.5108" y1="27.0766" x2="153.837" y2="16.0665" gradientUnits="userSpaceOnUse">
<stop stop-color="#996DFF"/>
<stop offset="1" stop-color="#00B37E"/>
</linearGradient>
<linearGradient id="paint7_linear_420_394" x1="46.5108" y1="27.0766" x2="153.837" y2="16.0665" gradientUnits="userSpaceOnUse">
<stop stop-color="#996DFF"/>
<stop offset="1" stop-color="#00B37E"/>
</linearGradient>
<linearGradient id="paint8_linear_420_394" x1="46.5108" y1="27.0766" x2="153.837" y2="16.0665" gradientUnits="userSpaceOnUse">
<stop stop-color="#996DFF"/>
<stop offset="1" stop-color="#00B37E"/>
</linearGradient>
<linearGradient id="paint9_linear_420_394" x1="46.5108" y1="27.0766" x2="153.837" y2="16.0665" gradientUnits="userSpaceOnUse">
<stop stop-color="#996DFF"/>
<stop offset="1" stop-color="#00B37E"/>
</linearGradient>
<linearGradient id="paint10_linear_420_394" x1="46.5108" y1="27.0766" x2="153.837" y2="16.0665" gradientUnits="userSpaceOnUse">
<stop stop-color="#996DFF"/>
<stop offset="1" stop-color="#00B37E"/>
</linearGradient>
<linearGradient id="paint11_linear_420_394" x1="46.5108" y1="27.0766" x2="153.837" y2="16.0665" gradientUnits="userSpaceOnUse">
<stop stop-color="#996DFF"/>
<stop offset="1" stop-color="#00B37E"/>
</linearGradient>
<linearGradient id="paint12_linear_420_394" x1="46.5108" y1="27.0766" x2="153.837" y2="16.0665" gradientUnits="userSpaceOnUse">
<stop stop-color="#996DFF"/>
<stop offset="1" stop-color="#00B37E"/>
</linearGradient>
<linearGradient id="paint13_linear_420_394" x1="46.5108" y1="27.0766" x2="153.837" y2="16.0665" gradientUnits="userSpaceOnUse">
<stop stop-color="#996DFF"/>
<stop offset="1" stop-color="#00B37E"/>
</linearGradient>
</defs>
</svg>
