<svg width="157" height="93" viewBox="0 0 157 93" fill="none" xmlns="http://www.w3.org/2000/svg">
<path d="M78.4377 44.6797C83.9213 44.6797 88.3666 40.2344 88.3666 34.7508C88.3666 29.2673 83.9213 24.822 78.4377 24.822C72.9542 24.822 68.5089 29.2673 68.5089 34.7508C68.5089 40.2344 72.9542 44.6797 78.4377 44.6797Z" stroke="url(#paint0_linear_420_395)" stroke-width="2" stroke-linecap="round" stroke-linejoin="round"/>
<path d="M91.3452 31.7722C93.658 31.7684 95.9397 32.305 98.0083 33.3393C100.077 34.3736 101.875 35.877 103.26 37.7295" stroke="url(#paint1_linear_420_395)" stroke-width="2" stroke-linecap="round" stroke-linejoin="round"/>
<path d="M53.6156 37.7295C55.0002 35.877 56.7985 34.3736 58.8671 33.3393C60.9357 32.305 63.2174 31.7684 65.5302 31.7722" stroke="url(#paint2_linear_420_395)" stroke-width="2" stroke-linecap="round" stroke-linejoin="round"/>
<path d="M64.1403 53.6157C65.4479 50.9376 67.4815 48.6806 70.0093 47.1019C72.5371 45.5231 75.4575 44.6861 78.4378 44.6861C81.4181 44.6861 84.3384 45.5231 86.8662 47.1019C89.394 48.6806 91.4276 50.9376 92.7353 53.6157" stroke="url(#paint3_linear_420_395)" stroke-width="2" stroke-linecap="round" stroke-linejoin="round"/>
<path d="M65.5302 31.7723C64.0226 31.7738 62.5457 31.3463 61.2721 30.5396C59.9985 29.733 58.9807 28.5805 58.3377 27.2169C57.6948 25.8533 57.4531 24.3349 57.6411 22.8391C57.829 21.3432 58.4387 19.9318 59.3991 18.7696C60.3594 17.6074 61.6306 16.7426 63.0642 16.2761C64.4978 15.8095 66.0345 15.7606 67.4949 16.135C68.9552 16.5095 70.2789 17.2917 71.3111 18.3905C72.3434 19.4892 73.0417 20.8591 73.3244 22.3399" stroke="url(#paint4_linear_420_395)" stroke-width="2" stroke-linecap="round" stroke-linejoin="round"/>
<path d="M83.5511 22.3399C83.8338 20.8591 84.5321 19.4892 85.5644 18.3905C86.5966 17.2917 87.9203 16.5095 89.3806 16.135C90.841 15.7606 92.3777 15.8095 93.8113 16.2761C95.2449 16.7426 96.5161 17.6074 97.4764 18.7696C98.4368 19.9318 99.0465 21.3432 99.2344 22.8391C99.4224 24.3349 99.1807 25.8533 98.5377 27.2169C97.8948 28.5805 96.877 29.733 95.6034 30.5396C94.3298 31.3463 92.8529 31.7738 91.3453 31.7723" stroke="url(#paint5_linear_420_395)" stroke-width="2" stroke-linecap="round" stroke-linejoin="round"/>
<path d="M1.2963 85.2174C0.919595 85.2174 0.609371 85.0954 0.365622 84.8515C0.121874 84.6076 0 84.2972 0 83.9203V60.5391C0 60.1622 0.121874 59.8518 0.365622 59.6079C0.609371 59.364 0.919595 59.242 1.2963 59.242C1.673 59.242 1.98322 59.364 2.22697 59.6079C2.47072 59.8518 2.59259 60.1622 2.59259 60.5391V70.916H18.8129V60.5391C18.8129 60.1622 18.9348 59.8518 19.1785 59.6079C19.4223 59.364 19.7325 59.242 20.1092 59.242C20.4859 59.242 20.7961 59.364 21.0399 59.6079C21.2836 59.8518 21.4055 60.1622 21.4055 60.5391V83.9203C21.4055 84.2972 21.2836 84.6076 21.0399 84.8515C20.7961 85.0954 20.4859 85.2174 20.1092 85.2174C19.7325 85.2174 19.4223 85.0954 19.1785 84.8515C18.9348 84.6076 18.8129 84.2972 18.8129 83.9203V73.2441H2.59259V83.9203C2.59259 84.2972 2.47072 84.6076 2.22697 84.8515C1.98322 85.0954 1.673 85.2174 1.2963 85.2174Z" fill="url(#paint6_linear_420_395)"/>
<path d="M35.9556 85.3837C34.1607 85.3837 32.5653 84.9957 31.1693 84.2196C29.7954 83.4214 28.7097 82.3238 27.9119 80.927C27.1364 79.5301 26.7486 77.9336 26.7486 76.1376C26.7486 74.3195 27.1142 72.723 27.8455 71.3483C28.5989 69.9514 29.6292 68.8539 30.9366 68.0557C32.244 67.2575 33.7508 66.8583 35.457 66.8583C37.1411 66.8583 38.6036 67.2464 39.8445 68.0224C41.1076 68.7763 42.0826 69.8295 42.7695 71.182C43.4564 72.5346 43.7999 74.0756 43.7999 75.805C43.7999 76.1598 43.6891 76.4481 43.4675 76.6698C43.2459 76.8693 42.9578 76.9691 42.6033 76.9691H28.477V74.8405H42.8692L41.44 75.8716C41.4621 74.5855 41.2294 73.4326 40.7419 72.4126C40.2544 71.3927 39.5564 70.5945 38.6479 70.018C37.7616 69.4415 36.6979 69.1532 35.457 69.1532C34.194 69.1532 33.086 69.4526 32.1332 70.0512C31.1804 70.6499 30.438 71.4814 29.9062 72.5457C29.3966 73.5878 29.1417 74.7851 29.1417 76.1376C29.1417 77.4902 29.4298 78.6875 30.0059 79.7296C30.6042 80.7717 31.413 81.5921 32.4323 82.1908C33.4517 82.7895 34.6261 83.0888 35.9556 83.0888C36.7533 83.0888 37.5511 82.9558 38.3488 82.6897C39.1687 82.4014 39.8223 82.0467 40.3098 81.6254C40.5536 81.4258 40.8306 81.3261 41.1408 81.3261C41.451 81.3039 41.7169 81.3815 41.9385 81.5589C42.2266 81.8249 42.3706 82.1132 42.3706 82.4236C42.3928 82.734 42.2709 83.0001 42.005 83.2218C41.2738 83.8427 40.3431 84.3637 39.213 84.785C38.0829 85.1841 36.9971 85.3837 35.9556 85.3837Z" fill="url(#paint7_linear_420_395)"/>
<path d="M52.0516 85.2174C51.1652 85.2174 50.3675 84.9735 49.6584 84.4857C48.9715 83.9979 48.4286 83.3216 48.0297 82.4569C47.653 81.5921 47.4647 80.5944 47.4647 79.4636V60.5059C47.4647 60.1289 47.5755 59.8296 47.7971 59.6079C48.0408 59.364 48.351 59.242 48.7277 59.242C49.1044 59.242 49.4036 59.364 49.6252 59.6079C49.8689 59.8296 49.9908 60.1289 49.9908 60.5059V79.4636C49.9908 80.417 50.1791 81.193 50.5558 81.7917C50.9547 82.3904 51.4533 82.6897 52.0516 82.6897H52.8825C53.2149 82.6897 53.4808 82.8116 53.6802 83.0555C53.8797 83.2773 53.9794 83.5766 53.9794 83.9535C53.9794 84.3305 53.8354 84.6409 53.5473 84.8848C53.2814 85.1065 52.9268 85.2174 52.4837 85.2174H52.0516Z" fill="url(#paint8_linear_420_395)"/>
<path d="M58.8065 93C58.4076 93 58.0863 92.8781 57.8426 92.6342C57.621 92.4124 57.5102 92.102 57.5102 91.7029V76.0046C57.5323 74.2751 57.9423 72.723 58.74 71.3483C59.5599 69.9514 60.6568 68.8539 62.0306 68.0557C63.4266 67.2575 64.9888 66.8583 66.7172 66.8583C68.4899 66.8583 70.0743 67.2685 71.4703 68.0889C72.8663 68.8871 73.9632 69.9847 74.7609 71.3816C75.5808 72.7785 75.9907 74.3638 75.9907 76.1376C75.9907 77.8893 75.5919 79.4635 74.7941 80.8604C74.0186 82.2573 72.955 83.366 71.6033 84.1863C70.2516 84.9846 68.7226 85.3837 67.0164 85.3837C65.5317 85.3837 64.18 85.0733 62.9613 84.4524C61.7647 83.8094 60.8008 82.9668 60.0695 81.9247V91.7029C60.0695 92.102 59.9477 92.4124 59.7039 92.6342C59.4823 92.8781 59.1832 93 58.8065 93ZM66.7172 83.0555C68.0024 83.0555 69.1547 82.7562 70.174 82.1575C71.1933 81.5589 71.991 80.7385 72.5672 79.6964C73.1655 78.6321 73.4646 77.4458 73.4646 76.1376C73.4646 74.8073 73.1655 73.621 72.5672 72.5789C71.991 71.5368 71.1933 70.7164 70.174 70.1177C69.1547 69.4969 68.0024 69.1865 66.7172 69.1865C65.4542 69.1865 64.313 69.4969 63.2937 70.1177C62.2744 70.7164 61.4766 71.5368 60.9005 72.5789C60.3244 73.621 60.0363 74.8073 60.0363 76.1376C60.0363 77.4458 60.3244 78.6321 60.9005 79.6964C61.4766 80.7385 62.2744 81.5589 63.2937 82.1575C64.313 82.7562 65.4542 83.0555 66.7172 83.0555Z" fill="url(#paint9_linear_420_395)"/>
<path d="M89.2871 85.3837C87.5366 85.3837 85.9633 84.9846 84.5673 84.1863C83.1713 83.366 82.0633 82.2573 81.2434 80.8604C80.4457 79.4635 80.0468 77.8782 80.0468 76.1044C80.0468 74.3527 80.4346 72.7785 81.2102 71.3816C82.0079 69.9847 83.0826 68.8871 84.4343 68.0889C85.786 67.2685 87.315 66.8583 89.0212 66.8583C90.5059 66.8583 91.8465 67.1798 93.0431 67.8229C94.2396 68.4437 95.2036 69.2752 95.9348 70.3173V60.5391C95.9348 60.14 96.0567 59.8296 96.3004 59.6079C96.5442 59.364 96.8544 59.242 97.2311 59.242C97.6078 59.242 97.918 59.364 98.1618 59.6079C98.4055 59.8296 98.5274 60.14 98.5274 60.5391V76.2374C98.4831 77.9669 98.051 79.5301 97.2311 80.927C96.4334 82.3017 95.3365 83.3881 93.9405 84.1863C92.5666 84.9846 91.0155 85.3837 89.2871 85.3837ZM89.2871 83.0555C90.5723 83.0555 91.7135 82.7562 92.7107 82.1575C93.73 81.5367 94.5277 80.7052 95.1038 79.6631C95.7021 78.621 96.0013 77.4347 96.0013 76.1044C96.0013 74.7962 95.7021 73.621 95.1038 72.5789C94.5277 71.5146 93.73 70.6831 92.7107 70.0845C91.7135 69.4858 90.5723 69.1865 89.2871 69.1865C88.0241 69.1865 86.8829 69.4858 85.8636 70.0845C84.8442 70.6831 84.0355 71.5146 83.4372 72.5789C82.8389 73.621 82.5397 74.7962 82.5397 76.1044C82.5397 77.4347 82.8389 78.621 83.4372 79.6631C84.0355 80.7052 84.8442 81.5367 85.8636 82.1575C86.8829 82.7562 88.0241 83.0555 89.2871 83.0555Z" fill="url(#paint10_linear_420_395)"/>
<path d="M112.754 85.3837C110.96 85.3837 109.364 84.9957 107.968 84.2196C106.594 83.4214 105.508 82.3238 104.711 80.927C103.935 79.5301 103.547 77.9336 103.547 76.1376C103.547 74.3195 103.913 72.723 104.644 71.3483C105.398 69.9514 106.428 68.8539 107.735 68.0557C109.043 67.2575 110.55 66.8583 112.256 66.8583C113.94 66.8583 115.402 67.2464 116.643 68.0224C117.906 68.7763 118.881 69.8295 119.568 71.182C120.255 72.5346 120.599 74.0756 120.599 75.805C120.599 76.1598 120.488 76.4481 120.266 76.6698C120.045 76.8693 119.757 76.9691 119.402 76.9691H105.276V74.8405H119.668L118.239 75.8716C118.261 74.5855 118.028 73.4326 117.541 72.4126C117.053 71.3927 116.355 70.5945 115.447 70.018C114.56 69.4415 113.497 69.1532 112.256 69.1532C110.993 69.1532 109.885 69.4526 108.932 70.0512C107.979 70.6499 107.237 71.4814 106.705 72.5457C106.195 73.5878 105.941 74.7851 105.941 76.1376C105.941 77.4902 106.229 78.6875 106.805 79.7296C107.403 80.7717 108.212 81.5921 109.231 82.1908C110.25 82.7895 111.425 83.0888 112.754 83.0888C113.552 83.0888 114.35 82.9558 115.148 82.6897C115.967 82.4014 116.621 82.0467 117.109 81.6254C117.352 81.4258 117.629 81.3261 117.94 81.3261C118.25 81.3039 118.516 81.3815 118.737 81.5589C119.025 81.8249 119.169 82.1132 119.169 82.4236C119.192 82.734 119.07 83.0001 118.804 83.2218C118.073 83.8427 117.142 84.3637 116.012 84.785C114.882 85.1841 113.796 85.3837 112.754 85.3837Z" fill="url(#paint11_linear_420_395)"/>
<path d="M131.277 85.3837C129.969 85.3837 128.673 85.1619 127.388 84.7185C126.103 84.275 125.061 83.6099 124.264 82.7229C124.02 82.4569 123.92 82.1575 123.964 81.8249C124.009 81.4924 124.175 81.2041 124.463 80.9602C124.773 80.7385 125.094 80.6498 125.427 80.6941C125.759 80.7385 126.036 80.8826 126.258 81.1265C126.79 81.7473 127.488 82.2241 128.352 82.5566C129.238 82.8892 130.213 83.0555 131.277 83.0555C132.917 83.0555 134.102 82.7784 134.833 82.2241C135.565 81.6476 135.941 80.9602 135.963 80.162C135.963 79.3638 135.587 78.7097 134.833 78.1997C134.08 77.6676 132.839 77.2574 131.111 76.9691C128.873 76.6144 127.233 75.9935 126.191 75.1066C125.15 74.2197 124.629 73.1665 124.629 71.947C124.629 70.8162 124.928 69.8738 125.527 69.12C126.125 68.3661 126.923 67.8007 127.92 67.4237C128.917 67.0468 130.014 66.8583 131.21 66.8583C132.695 66.8583 133.969 67.1133 135.033 67.6233C136.119 68.1333 136.994 68.8206 137.659 69.6854C137.88 69.9736 137.969 70.2729 137.924 70.5834C137.88 70.8938 137.703 71.1488 137.393 71.3483C137.127 71.5035 136.817 71.559 136.462 71.5146C136.13 71.4481 135.842 71.2818 135.598 71.0157C135.044 70.3727 134.401 69.9071 133.67 69.6189C132.939 69.3084 132.097 69.1532 131.144 69.1532C129.925 69.1532 128.95 69.4082 128.219 69.9182C127.488 70.406 127.122 71.0268 127.122 71.7807C127.122 72.2907 127.255 72.7341 127.521 73.1111C127.809 73.488 128.285 73.8206 128.95 74.1088C129.637 74.3971 130.59 74.641 131.809 74.8405C133.471 75.1066 134.778 75.5057 135.731 76.0379C136.706 76.5478 137.393 77.1576 137.792 77.8671C138.213 78.5545 138.423 79.3083 138.423 80.1287C138.423 81.1709 138.113 82.091 137.492 82.8892C136.894 83.6653 136.052 84.275 134.966 84.7185C133.903 85.1619 132.673 85.3837 131.277 85.3837Z" fill="url(#paint12_linear_420_395)"/>
<path d="M144.94 79.131L143.378 77.4347L154.745 67.1577C155.011 66.9138 155.288 66.8029 155.576 66.8251C155.864 66.8251 156.13 66.9581 156.374 67.2242C156.618 67.4903 156.728 67.7785 156.706 68.0889C156.706 68.3772 156.573 68.6322 156.307 68.8539L144.94 79.131ZM144.109 85.2174C143.732 85.2174 143.422 85.1065 143.178 84.8848C142.957 84.6409 142.846 84.3305 142.846 83.9535V60.5059C142.846 60.1289 142.957 59.8296 143.178 59.6079C143.422 59.364 143.732 59.242 144.109 59.242C144.486 59.242 144.785 59.364 145.006 59.6079C145.25 59.8296 145.372 60.1289 145.372 60.5059V83.9535C145.372 84.3305 145.25 84.6409 145.006 84.8848C144.785 85.1065 144.486 85.2174 144.109 85.2174ZM156.407 85.0511C156.119 85.295 155.82 85.3948 155.51 85.3504C155.199 85.3282 154.934 85.173 154.712 84.8848L147.3 75.7718L149.095 74.1753L156.573 83.3881C156.795 83.6542 156.895 83.9424 156.872 84.2529C156.85 84.5411 156.695 84.8072 156.407 85.0511Z" fill="url(#paint13_linear_420_395)"/>
<defs>
<linearGradient id="paint0_linear_420_395" x1="78.4377" y1="24.822" x2="78.4377" y2="44.6797" gradientUnits="userSpaceOnUse">
<stop stop-color="#996DFF"/>
<stop offset="1" stop-color="#00B37E"/>
</linearGradient>
<linearGradient id="paint1_linear_420_395" x1="97.3025" y1="31.7722" x2="97.3025" y2="37.7295" gradientUnits="userSpaceOnUse">
<stop stop-color="#996DFF"/>
<stop offset="1" stop-color="#00B37E"/>
</linearGradient>
<linearGradient id="paint2_linear_420_395" x1="59.5729" y1="31.7722" x2="59.5729" y2="37.7295" gradientUnits="userSpaceOnUse">
<stop stop-color="#996DFF"/>
<stop offset="1" stop-color="#00B37E"/>
</linearGradient>
<linearGradient id="paint3_linear_420_395" x1="78.4378" y1="44.6861" x2="78.4378" y2="53.6157" gradientUnits="userSpaceOnUse">
<stop stop-color="#996DFF"/>
<stop offset="1" stop-color="#00B37E"/>
</linearGradient>
<linearGradient id="paint4_linear_420_395" x1="65.4517" y1="15.8862" x2="65.4517" y2="31.7723" gradientUnits="userSpaceOnUse">
<stop stop-color="#996DFF"/>
<stop offset="1" stop-color="#00B37E"/>
</linearGradient>
<linearGradient id="paint5_linear_420_395" x1="91.4238" y1="15.8862" x2="91.4238" y2="31.7723" gradientUnits="userSpaceOnUse">
<stop stop-color="#996DFF"/>
<stop offset="1" stop-color="#00B37E"/>
</linearGradient>
<linearGradient id="paint6_linear_420_395" x1="-0.207736" y1="83.9182" x2="156.638" y2="67.8282" gradientUnits="userSpaceOnUse">
<stop stop-color="#996DFF"/>
<stop offset="1" stop-color="#00B37E"/>
</linearGradient>
<linearGradient id="paint7_linear_420_395" x1="-0.207736" y1="83.9182" x2="156.638" y2="67.8282" gradientUnits="userSpaceOnUse">
<stop stop-color="#996DFF"/>
<stop offset="1" stop-color="#00B37E"/>
</linearGradient>
<linearGradient id="paint8_linear_420_395" x1="-0.207736" y1="83.9182" x2="156.638" y2="67.8282" gradientUnits="userSpaceOnUse">
<stop stop-color="#996DFF"/>
<stop offset="1" stop-color="#00B37E"/>
</linearGradient>
<linearGradient id="paint9_linear_420_395" x1="-0.207736" y1="83.9182" x2="156.638" y2="67.8282" gradientUnits="userSpaceOnUse">
<stop stop-color="#996DFF"/>
<stop offset="1" stop-color="#00B37E"/>
</linearGradient>
<linearGradient id="paint10_linear_420_395" x1="-0.207736" y1="83.9182" x2="156.638" y2="67.8282" gradientUnits="userSpaceOnUse">
<stop stop-color="#996DFF"/>
<stop offset="1" stop-color="#00B37E"/>
</linearGradient>
<linearGradient id="paint11_linear_420_395" x1="-0.207736" y1="83.9182" x2="156.638" y2="67.8282" gradientUnits="userSpaceOnUse">
<stop stop-color="#996DFF"/>
<stop offset="1" stop-color="#00B37E"/>
</linearGradient>
<linearGradient id="paint12_linear_420_395" x1="-0.207736" y1="83.9182" x2="156.638" y2="67.8282" gradientUnits="userSpaceOnUse">
<stop stop-color="#996DFF"/>
<stop offset="1" stop-color="#00B37E"/>
</linearGradient>
<linearGradient id="paint13_linear_420_395" x1="-0.207736" y1="83.9182" x2="156.638" y2="67.8282" gradientUnits="userSpaceOnUse">
<stop stop-color="#996DFF"/>
<stop offset="1" stop-color="#00B37E"/>
</linearGradient>
</defs>
</svg>
